<svg width="19" height="18" viewBox="0 0 19 18" fill="none" xmlns="http://www.w3.org/2000/svg">
<path d="M17 6.39V2.985C17 1.9275 16.52 1.5 15.3275 1.5H12.2975C11.105 1.5 10.625 1.9275 10.625 2.985V6.3825C10.625 7.4475 11.105 7.8675 12.2975 7.8675H15.3275C16.52 7.875 17 7.4475 17 6.39Z" stroke="#0070CD" stroke-width="1.5" stroke-linecap="round" stroke-linejoin="round"/>
<path d="M17 14.8275V11.7975C17 10.605 16.52 10.125 15.3275 10.125H12.2975C11.105 10.125 10.625 10.605 10.625 11.7975V14.8275C10.625 16.02 11.105 16.5 12.2975 16.5H15.3275C16.52 16.5 17 16.02 17 14.8275Z" stroke="#0070CD" stroke-width="1.5" stroke-linecap="round" stroke-linejoin="round"/>
<path d="M8.375 6.39V2.985C8.375 1.9275 7.895 1.5 6.7025 1.5H3.6725C2.48 1.5 2 1.9275 2 2.985V6.3825C2 7.4475 2.48 7.8675 3.6725 7.8675H6.7025C7.895 7.875 8.375 7.4475 8.375 6.39Z" stroke="#0070CD" stroke-width="1.5" stroke-linecap="round" stroke-linejoin="round"/>
<path d="M8.375 14.8275V11.7975C8.375 10.605 7.895 10.125 6.7025 10.125H3.6725C2.48 10.125 2 10.605 2 11.7975V14.8275C2 16.02 2.48 16.5 3.6725 16.5H6.7025C7.895 16.5 8.375 16.02 8.375 14.8275Z" stroke="#0070CD" stroke-width="1.5" stroke-linecap="round" stroke-linejoin="round"/>
</svg>
